<?xml version="1.0" encoding="UTF-8"?>
<svg version="1.1" xmlns="http://www.w3.org/2000/svg" width="1254" height="1254">
<path d="M0 0 C413.82 0 827.64 0 1254 0 C1254 413.82 1254 827.64 1254 1254 C840.18 1254 426.36 1254 0 1254 C0 840.18 0 426.36 0 0 Z " fill="#83A5D3" transform="translate(0,0)"/>
<path d="M0 0 C413.82 0 827.64 0 1254 0 C1254 413.82 1254 827.64 1254 1254 C840.18 1254 426.36 1254 0 1254 C0 840.18 0 426.36 0 0 Z M315.5 155.1875 C314.54915527 155.40108154 313.59831055 155.61466309 312.61865234 155.8347168 C276.56645753 164.28323329 245.43940327 183.41109502 219 209 C218.25363281 209.70640625 217.50726563 210.4128125 216.73828125 211.140625 C182.18281291 244.54198143 160.97791798 294.01326407 159.54073071 341.94999875 C159.45834307 347.21887079 159.46447931 352.48537604 159.4853363 357.75469971 C159.47999621 360.15197097 159.4729222 362.54923887 159.46428925 364.94650054 C159.44775184 370.78384741 159.4494279 376.62097965 159.4593024 382.45833681 C159.47010744 389.4655749 159.45745536 396.4727257 159.44438729 403.479953 C159.41957387 417.20625163 159.41753539 430.93248092 159.42566141 444.65879543 C159.43275894 456.67404621 159.43276777 468.68927024 159.42579842 480.70452118 C159.42488705 482.32184328 159.42397629 483.93916538 159.42306613 485.55648749 C159.42168286 487.99422806 159.42029176 490.43196863 159.41887999 492.86970918 C159.4059166 515.5062727 159.40076314 538.14282734 159.4124136 560.77939224 C159.41285157 561.63104355 159.41328954 562.48269487 159.41374078 563.36015379 C159.41734689 570.27430337 159.42118203 577.18845281 159.42503171 584.10260225 C159.43987381 611.06046382 159.43110142 638.01822401 159.40307617 664.97607422 C159.37158152 695.32855167 159.35669941 725.68096916 159.36687618 756.03346324 C159.36791281 759.27571407 159.36890006 762.51796491 159.3698597 765.76021576 C159.37010858 766.55842234 159.37035747 767.35662891 159.3706139 768.17902357 C159.37404005 780.17746835 159.36480121 792.17585983 159.34908867 804.17429352 C159.33124001 817.83454937 159.33130414 831.49467634 159.35444032 845.15492687 C159.36576629 852.11340593 159.36939503 859.07166265 159.35013962 866.03013039 C158.87245867 904.34314907 158.87245867 904.34314907 165 942 C165.24361389 942.97762818 165.48722778 943.95525636 165.73822391 944.96250963 C174.41411629 979.70890301 192.33372078 1010.20616939 217 1036 C217.87398437 1036.92683594 218.74796875 1037.85367188 219.6484375 1038.80859375 C240.20499141 1060.05840387 267.07964813 1076.51829144 295 1086 C295.7724707 1086.26651367 296.54494141 1086.53302734 297.34082031 1086.80761719 C319.07828366 1094.1839402 340.746083 1096.60627797 363.60525513 1096.50793457 C365.98617808 1096.51255662 368.36709817 1096.5189182 370.74801242 1096.52684355 C376.54473174 1096.54165812 382.3412291 1096.5382475 388.1379509 1096.52664049 C395.09626392 1096.51376306 402.05449545 1096.52439733 409.01280454 1096.53548814 C422.64155011 1096.55644588 436.27022023 1096.55476794 449.89897281 1096.54317249 C461.82507068 1096.53307649 473.75114101 1096.53049913 485.67724228 1096.53526306 C486.86778215 1096.53572137 486.86778215 1096.53572137 488.08237334 1096.53618894 C491.30489615 1096.53743446 494.52741895 1096.53870808 497.74994174 1096.540028 C527.92520954 1096.5522399 558.10042952 1096.54120807 588.27568994 1096.51964041 C615.03879936 1096.50065698 641.80183264 1096.50236237 668.56494141 1096.52148438 C698.6910258 1096.54293768 728.81706801 1096.5513772 758.94315898 1096.53903532 C762.1589024 1096.5377526 765.37464582 1096.53650123 768.59038925 1096.53526306 C769.77793229 1096.5347886 769.77793229 1096.5347886 770.98946611 1096.53430455 C782.90454019 1096.52976936 794.81958364 1096.53504815 806.73465347 1096.54518127 C820.29149684 1096.55665374 833.84825352 1096.55368368 847.40508617 1096.5320583 C854.31418479 1096.52139842 861.22314313 1096.51683438 868.1322403 1096.53065491 C874.46962284 1096.54266517 880.80671005 1096.53587503 887.1440662 1096.5147447 C889.42366839 1096.51031504 891.70329607 1096.5124618 893.98288156 1096.52224785 C914.02523302 1096.60161735 932.78325487 1093.67671902 952 1088 C952.64098633 1087.81856445 953.28197266 1087.63712891 953.94238281 1087.45019531 C973.22914227 1081.98671055 990.78094059 1072.77359133 1007.3125 1061.5 C1007.92150146 1061.08588867 1008.53050293 1060.67177734 1009.15795898 1060.24511719 C1033.86249325 1043.0175188 1054.38131141 1020.25962442 1069 994 C1069.35433105 993.37351562 1069.70866211 992.74703125 1070.07373047 992.1015625 C1076.00649482 981.57352436 1080.54773239 970.80542195 1084.25390625 959.2890625 C1084.8013236 957.60955168 1085.37555388 955.9387182 1085.96484375 954.2734375 C1088.63294908 946.64164941 1090.61149182 938.96412401 1092 931 C1092.24627528 929.70462053 1092.24627528 929.70462053 1092.49752581 928.38307178 C1094.47000973 916.6803525 1094.2848331 905.02771818 1094.26742554 893.19314575 C1094.27116602 890.77690835 1094.27576913 888.36067215 1094.28115618 885.94443786 C1094.29081141 880.70786778 1094.29430782 875.47133158 1094.29224396 870.23475456 C1094.28918219 862.44700297 1094.29754395 854.65929197 1094.30799321 846.87154829 C1094.32729687 832.1486286 1094.33296011 817.42572287 1094.33410732 802.702792 C1094.33502792 791.32699397 1094.33915245 779.95120138 1094.34550858 768.57540512 C1094.34730379 765.29577157 1094.34908342 762.016138 1094.35085833 758.73650444 C1094.35130043 757.92106944 1094.35174252 757.10563444 1094.35219802 756.26548929 C1094.36450034 733.3395815 1094.37239978 710.41367559 1094.37151146 687.48776436 C1094.3714803 686.62405485 1094.37144914 685.76034535 1094.37141704 684.87046283 C1094.37125084 680.49327107 1094.37105276 676.11607932 1094.37084763 671.73888756 C1094.37080774 670.86963347 1094.37076785 670.00037938 1094.37072675 669.10478426 C1094.37064587 667.34694048 1094.37056228 665.5890967 1094.37047596 663.83125292 C1094.36925122 636.4991343 1094.38425205 609.16706535 1094.41162109 581.83496094 C1094.4423916 551.09366316 1094.45955055 520.35239801 1094.45769465 489.61108387 C1094.4575454 486.32830675 1094.45744798 483.04552965 1094.45738602 479.76275253 C1094.45736271 478.95451236 1094.4573394 478.14627218 1094.45731538 477.31353988 C1094.45725403 464.34785824 1094.46998613 451.38221997 1094.48725055 438.41655119 C1094.50426576 425.36740843 1094.50613508 412.31832861 1094.4930319 399.26918085 C1094.48568141 391.53338587 1094.48918273 383.79778305 1094.50891658 376.06200873 C1094.52245363 370.2613936 1094.5147001 364.46095318 1094.49917014 358.66035019 C1094.49612045 356.33195741 1094.49965478 354.00354335 1094.51089029 351.67517568 C1094.60036825 331.79684193 1092.53515368 312.28965036 1086.5625 293.25 C1086.25594482 292.24525635 1085.94938965 291.2405127 1085.63354492 290.20532227 C1083.47942267 283.26363365 1081.21191561 276.53244673 1078 270 C1077.6071582 269.19272461 1077.21431641 268.38544922 1076.80957031 267.55371094 C1070.26229894 254.21077493 1063.12919199 241.74199737 1054 230 C1053.56929199 229.44231934 1053.13858398 228.88463867 1052.69482422 228.31005859 C1037.35248662 208.71487015 1018.51537804 191.41725757 996.86132812 179.06591797 C995.50799766 178.29091262 994.16115644 177.50454159 992.81835938 176.71142578 C975.11932545 166.27250342 956.8230554 160.09198407 937 155 C935.81535156 154.690625 934.63070312 154.38125 933.41015625 154.0625 C918.84503958 150.46018815 904.14898811 150.85493151 889.24194336 150.86628723 C886.91532797 150.86441751 884.58871289 150.86211616 882.26209831 150.85942191 C875.88593001 150.85331741 869.50977484 150.85343592 863.13360429 150.85461628 C856.9574968 150.85528652 850.78139243 150.85030502 844.60528683 150.8460034 C830.41711224 150.83634711 816.22894128 150.83351979 802.0407638 150.83294634 C791.07964513 150.83248622 780.11852788 150.8304249 769.15740967 150.82724571 C765.99851481 150.82634812 762.83961996 150.82545831 759.6807251 150.82457083 C758.89533563 150.82434979 758.10994617 150.82412874 757.30075702 150.82390099 C735.2172081 150.81774914 713.13365968 150.81380018 691.05010986 150.81424427 C689.80193063 150.81426764 689.80193063 150.81426764 688.52853566 150.81429148 C684.31133449 150.81437458 680.09413332 150.81447362 675.87693214 150.81457619 C675.03943326 150.81459613 674.20193437 150.81461608 673.33905673 150.81463663 C671.64542985 150.81467706 669.95180297 150.81471886 668.25817609 150.81476202 C641.91999598 150.8153745 615.58182876 150.80787231 589.24365234 150.79418945 C559.62821534 150.77881025 530.01278679 150.77022435 500.39734554 150.77115268 C497.23593585 150.7712273 494.07452615 150.77127601 490.91311646 150.77130699 C490.1347429 150.77131865 489.35636934 150.7713303 488.55440871 150.77134231 C476.05833662 150.77137301 463.56227578 150.76500217 451.06620703 150.75637473 C438.49411205 150.74787469 425.92203341 150.74692663 413.34993714 150.75348405 C406.54651541 150.7568418 399.74313655 150.75682914 392.93971825 150.7481308 C386.70073332 150.74023643 380.46182079 150.74172712 374.22283757 150.75041493 C371.97655617 150.75194348 369.73026929 150.75015836 367.48399436 150.74455485 C350.02545546 150.70391888 332.58780253 151.27686667 315.5 155.1875 Z " fill="#FDFDFD" transform="translate(0,0)"/>
<path d="M0 0 C3.55519109 2.45559662 6.79951038 5.10022752 10 8 C10.83015625 8.73734375 11.6603125 9.4746875 12.515625 10.234375 C28.94576779 25.65653357 39.01397745 48.39830537 40.203125 70.83203125 C40.3342106 81.96338311 38.99440289 90.4916368 33 100 C33.46148438 100.42667969 33.92296875 100.85335937 34.3984375 101.29296875 C44.84930184 111.31010156 53.07425141 122.79120845 59 136 C59 136.99 59 137.98 59 139 C59.99 138.67 60.98 138.34 62 138 C70.43154056 136.79794737 77.96029709 139.55495662 85.80419922 142.25146484 C88.03034882 143.01034573 90.26479451 143.73736848 92.50390625 144.45703125 C120.61561639 153.54251914 120.61561639 153.54251914 124 158 C124.5 160.4375 124.5 160.4375 124 163 C120.28137057 166.52560268 116.15843431 168.43568876 111.4609375 170.3125 C110.73943512 170.60809814 110.01793274 170.90369629 109.27456665 171.20825195 C106.97781156 172.14666639 104.67647289 173.07322591 102.375 174 C100.85257102 174.62167741 99.33043273 175.24406718 97.80859375 175.8671875 C75.42385668 185 75.42385668 185 72 185 C72 185.66 72 186.32 72 187 C72.79277344 187.23074219 73.58554687 187.46148437 74.40234375 187.69921875 C79.00779074 189.36438037 83.23218394 191.53849799 87.5625 193.8125 C88.39974609 194.23853516 89.23699219 194.66457031 90.09960938 195.10351562 C94.80822132 197.56780105 98.60799109 199.86879567 102 204 C102.125 206.5625 102.125 206.5625 101 209 C96.57193856 213.65398294 91.57106432 214.23119691 85.5 215.25 C84.56285156 215.42273438 83.62570312 215.59546875 82.66015625 215.7734375 C78.37302225 216.53964868 74.36579937 217.09135911 70 217 C73.33116044 221.395629 76.74110898 225.71284711 80.30078125 229.92578125 C87.31420288 238.24342644 93.84822057 246.36679317 99 256 C99.52464844 256.9590625 100.04929687 257.918125 100.58984375 258.90625 C105.4980814 269.02184228 105.54537142 279.87420142 102.375 290.5625 C99.41742395 298.16769556 95.00030242 303.36954808 87.6953125 307.12109375 C81.25444285 309.22137733 73.32165679 309.22925957 66.9375 306.8125 C60.39337624 302.7746364 56.37461688 297.3039977 54.44604492 289.86254883 C54.039337 287.57939767 53.72111648 285.30166582 53.4375 283 C53.32237061 282.15276367 53.20724121 281.30552734 53.08862305 280.43261719 C52.8428728 278.60117297 52.6042602 276.76875961 52.37207031 274.93554688 C51.97910289 271.8351267 51.5644923 268.73802621 51.1484375 265.640625 C50.86846704 263.51059036 50.58979801 261.3803842 50.3125 259.25 C50.18093506 258.25097656 50.04937012 257.25195312 49.91381836 256.22265625 C49.22925137 250.76453504 48.86313692 245.50059218 49 240 C48.34 240 47.68 240 47 240 C46.72236816 240.58918213 46.44473633 241.17836426 46.15869141 241.78540039 C45.06984379 243.86650801 43.90093578 245.58483363 42.4609375 247.43359375 C41.96650146 248.07635254 41.47206543 248.71911133 40.96264648 249.38134766 C40.43872314 250.05987793 39.9147998 250.7384082 39.375 251.4375 C26.87184026 267.27347875 26.87184026 267.27347875 21 286 C20.88591797 287.36705078 20.88591797 287.36705078 20.76953125 288.76171875 C20.35508512 297.50989249 22.16524905 303.63683848 27.984375 310.2578125 C33.09838843 315.17234313 38.23973782 317.98361056 45 320 C45.97710938 320.29777344 46.95421875 320.59554688 47.9609375 320.90234375 C59.62024986 324.02588793 71.10755835 323.47200631 83 322 C88.7139346 332.47804194 93.98523221 342.74624936 98 354 C98.68130732 355.64840649 99.36855782 357.29437254 100.0625 358.9375 C105.71729648 373.25544468 107.96135139 388.19628575 110.4909668 403.3112793 C110.9538145 406.08517165 110.9538145 406.08517165 112 409 C112.12183834 411.96879419 112.18827526 414.91318157 112.203125 417.8828125 C112.20882507 418.77048309 112.21452515 419.65815369 112.22039795 420.57272339 C112.22985446 422.46074229 112.23638451 424.34877775 112.24023438 426.23681641 C112.24979965 429.06574528 112.28075526 431.89390236 112.3125 434.72265625 C112.37085492 444.91912705 111.78112682 454.5444122 109.70239258 464.53759766 C109.10923914 467.46151216 108.70234988 470.28307593 108.4375 473.25 C108.03116522 476.73286958 107.28128097 478.79679758 106 482 C105.17067264 484.79673121 104.43714111 487.61852775 103.6875 490.4375 C96.28528908 517.3514297 83.46326699 541.81966528 64 562 C62.84639476 563.34755198 61.69997435 564.70130439 60.5625 566.0625 C39.65724509 589.92650328 9.6901251 605.02702402 -19.7578125 615.45703125 C-22.40257805 616.39505007 -24.90748682 617.40230897 -27.48046875 618.54296875 C-31.64816341 620.26832958 -35.82076538 621.40095569 -40.1875 622.5 C-41.02611572 622.71503174 -41.86473145 622.93006348 -42.72875977 623.15161133 C-44.39603207 623.57825718 -46.06390514 624.00256346 -47.73242188 624.42431641 C-49.65242095 624.91175803 -51.56882865 625.41331248 -53.484375 625.91796875 C-60.27827826 627.68833772 -67.06448694 628.93057849 -74 630 C-75.46112448 630.23844034 -76.92204878 630.47810939 -78.3828125 630.71875 C-118.39365496 637.27011212 -160.88688045 640.21843233 -201.27099609 635.32080078 C-204.36115636 634.95754523 -207.4545611 634.64709541 -210.55078125 634.33984375 C-250.73628915 630.26371085 -250.73628915 630.26371085 -254 627 C-256.22481033 626.59996495 -258.4553172 626.23160757 -260.6875 625.875 C-280.62755066 622.38915322 -300.81189175 614.81178254 -319 606 C-319.59248535 605.71398926 -320.1849707 605.42797852 -320.79541016 605.13330078 C-357.46293683 587.35706078 -391.83107876 562.37173448 -417 530 C-417.48581543 529.38527832 -417.97163086 528.77055664 -418.47216797 528.13720703 C-435.85384694 506.13325331 -451.00267006 482.27869585 -461 456 C-462.27885674 452.92649566 -463.61266626 449.87742949 -464.95703125 446.83203125 C-468.38095129 438.74907846 -470.70013803 430.30426039 -473.15283203 421.89013672 C-474.04662111 418.8409508 -474.95775034 415.79728858 -475.87109375 412.75390625 C-476.4977337 410.64853803 -477.12404163 408.54307096 -477.75 406.4375 C-478.04366455 405.46345215 -478.3373291 404.4894043 -478.63989258 403.48583984 C-481.32672012 394.37128812 -482.95688228 385.24712721 -484 375.8125 C-484.16494933 374.3593278 -484.3303256 372.90620402 -484.49609375 371.453125 C-484.57843262 370.72287109 -484.66077148 369.99261719 -484.74560547 369.24023438 C-485.16892886 365.51238848 -485.61068632 361.78699036 -486.0625 358.0625 C-486.21847656 356.75410156 -486.37445313 355.44570313 -486.53515625 354.09765625 C-486.82183511 351.09839027 -486.82183511 351.09839027 -488 349 C-489.05622484 340.28182815 -489.14840038 331.51590441 -489.1328125 322.74609375 C-489.13424759 320.91377953 -489.13424759 320.91377953 -489.13571167 319.04444885 C-489.13638757 316.4755142 -489.13457477 313.90657778 -489.13037109 311.33764648 C-489.12504724 307.47180191 -489.13031957 303.60607524 -489.13671875 299.74023438 C-489.14354674 281.05712055 -489.08054338 262.54100351 -486.0625 244.0625 C-485.89298828 242.97388672 -485.72347656 241.88527344 -485.54882812 240.76367188 C-485.21105483 238.59961102 -484.86826147 236.4363267 -484.52001953 234.27392578 C-483.7958854 229.71494047 -483.12890264 225.14760885 -482.46264648 220.57983398 C-482 218 -482 218 -481 216 C-480.7866033 214.12556952 -480.57916385 212.25045858 -480.375 210.375 C-479.37210814 204.013144 -476.99466255 200.06024907 -472 196 C-463.12668042 193.04222681 -453.16503416 194.43449965 -444.88671875 198.40234375 C-426.38133882 208.64415754 -410.53883671 223.8754198 -397 240 C-396.19304687 240.95261719 -395.38609375 241.90523437 -394.5546875 242.88671875 C-392.68387217 245.09549 -390.81412765 247.30516116 -388.9453125 249.515625 C-388.21683105 250.37704102 -388.21683105 250.37704102 -387.47363281 251.25585938 C-386.50068463 252.40740706 -385.52866021 253.55973595 -384.55761719 254.71289062 C-369.30940795 272.87149685 -369.30940795 272.87149685 -352 289 C-351.18144531 289.72960937 -350.36289062 290.45921875 -349.51953125 291.2109375 C-323.15341968 314.26764748 -291.64590826 325.33057726 -257.92797852 332.37695312 C-255.47054278 332.89987283 -253.02982282 333.46525349 -250.5859375 334.046875 C-244.35514265 335.44048405 -238.01235357 336.1675257 -231.6875 337 C-217.61015516 338.87016102 -217.61015516 338.87016102 -210.79296875 340.04296875 C-206.04984115 340.85436078 -201.31187772 341.45936299 -196.52978516 341.98730469 C-166.61727031 345.33605824 -134.34702465 352.46230502 -113.9453125 376.45703125 C-107.71902856 384.59620966 -102.84998745 393.13791471 -100 403 C-99.64679688 404.175625 -99.29359375 405.35125 -98.9296875 406.5625 C-93.5952978 428.50962986 -99.50129877 452.00594203 -110.57421875 471.125 C-114.24222694 477.13939976 -118.48462153 482.6051943 -123 488 C-123.63292969 488.79664063 -124.26585937 489.59328125 -124.91796875 490.4140625 C-138.45917349 506.75590021 -158.02976675 516.44603459 -177 525 C-177.93714844 525.43441406 -178.87429688 525.86882813 -179.83984375 526.31640625 C-186.29765457 529.13134943 -193.09562769 530.55659193 -199.94921875 532.0703125 C-202.52035244 532.6391179 -204.97684762 533.29153136 -207.5078125 534.046875 C-231.43209239 540.57654423 -262.82541445 539.28349565 -286.72753906 533.52832031 C-289.1492256 532.96530681 -291.57910393 532.50859489 -294.0234375 532.0546875 C-298.84817254 531.10049329 -303.37784902 529.66224682 -308 528 C-308.75958008 527.73719238 -309.51916016 527.47438477 -310.30175781 527.20361328 C-329.24424905 520.59057738 -347.80615141 511.96217137 -364 500 C-365.03769531 499.24460937 -366.07539063 498.48921875 -367.14453125 497.7109375 C-374.73482241 492.08661541 -381.73087941 485.9155824 -388.55126953 479.38574219 C-389.8470043 478.14634371 -391.1551282 476.91992768 -392.46484375 475.6953125 C-397.43655735 470.92456448 -401.6447962 465.78439646 -405.72729492 460.25219727 C-407.93257307 457.14645933 -407.93257307 457.14645933 -411 455 C-415.13064626 454.62384874 -415.13064626 454.62384874 -418.875 456.125 C-420.53529003 458.89215004 -420.30447697 460.80877297 -420 464 C-418.45166291 466.89204548 -418.45166291 466.89204548 -416.1875 469.625 C-415.58615234 470.39324097 -415.58615234 470.39324097 -414.97265625 471.17700195 C-410.28905967 477.06292519 -405.18901269 482.56100567 -400 488 C-399.27167969 488.78117187 -398.54335938 489.56234375 -397.79296875 490.3671875 C-369.74949385 519.60732274 -323.17964539 545.32233784 -282.26890564 548.73286438 C-280.07203274 548.99151903 -278.05898882 549.45384916 -275.92016602 550.00854492 C-270.58634744 551.21928483 -265.41631136 551.30587626 -259.96484375 551.30078125 C-258.92791885 551.30506638 -257.89099396 551.3093515 -256.82264709 551.31376648 C-254.6367363 551.31948223 -252.4508065 551.32003049 -250.26489258 551.31567383 C-246.97117438 551.31253212 -243.67837194 551.3359453 -240.38476562 551.36132812 C-228.5179301 551.39760494 -217.5557392 550.76511442 -206 548 C-204.98156006 547.78625732 -203.96312012 547.57251465 -202.91381836 547.35229492 C-176.96577829 541.89544869 -151.87826581 531.5524093 -131 515 C-130.21713623 514.38535889 -130.21713623 514.38535889 -129.41845703 513.75830078 C-121.56893516 507.54822144 -115.03352629 501.04470171 -109 493 C-108.34773438 492.1853125 -107.69546875 491.370625 -107.0234375 490.53125 C-88.04924374 466.03866522 -82.35741389 437.68698598 -85.26806641 407.19140625 C-87.64687792 390.15279023 -95.99136787 375.91045562 -107 363 C-107.54914063 362.33742188 -108.09828125 361.67484375 -108.6640625 360.9921875 C-121.12682239 347.25119583 -140.48045277 339.38503356 -158 335 C-158.98355469 334.73574219 -159.96710938 334.47148438 -160.98046875 334.19921875 C-174.79728332 330.56321492 -188.93908564 328.46977269 -203.0625 326.4375 C-204.50069133 326.22748925 -205.93884247 326.01720308 -207.37695312 325.80664062 C-216.5753273 324.4653987 -225.78309717 323.20730452 -235 322 C-232.17557472 319.09559956 -229.5733704 317.02732968 -226.0625 315 C-192.58417621 294.09842619 -177.21142703 252.80849436 -168.59776306 216.12773132 C-167.77478215 212.5686288 -166.97791188 209.00395783 -166.1875 205.4375 C-166.03425262 204.75263519 -165.88100525 204.06777039 -165.72311401 203.3621521 C-163.92507944 195.27154296 -162.47457299 187.28928067 -162 179 C-162.61029053 178.70287109 -163.22058105 178.40574219 -163.84936523 178.09960938 C-182.20457178 168.71467916 -197.49527992 151.08056926 -204.140625 131.66796875 C-205.10418528 127.55531829 -205.34511657 123.83017385 -205.3125 119.625 C-205.30758545 118.87476563 -205.3026709 118.12453125 -205.29760742 117.3515625 C-205.17930114 111.76022575 -204.47870458 107.06824555 -202 102 C-201.68289063 101.27941406 -201.36578125 100.55882812 -201.0390625 99.81640625 C-194.73117234 86.90983666 -183.72655976 80.3799916 -171 75 C-167.66389099 74.04239104 -164.72715612 73.89610528 -161.25 73.9375 C-160.26515625 73.94652344 -159.2803125 73.95554687 -158.265625 73.96484375 C-157.51796875 73.97644531 -156.7703125 73.98804688 -156 74 C-156.61875 73.01 -157.2375 72.02 -157.875 71 C-162.63160174 62.58317636 -163.31474264 53.2489438 -160.875 43.9375 C-157.17362714 32.93667554 -148.8628718 23.28920965 -138.46508789 18.11206055 C-131.10454602 14.79154275 -123.92042788 13.41475996 -115.875 13.4375 C-114.5130249 13.44112549 -114.5130249 13.44112549 -113.12353516 13.44482422 C-100.04604367 13.79628324 -89.0952501 19.3710582 -78 26 C-78.0825 24.72125 -78.165 23.4425 -78.25 22.125 C-78.20534697 12.6287895 -73.46773453 4.69918428 -67 -2 C-47.28537995 -19.32263093 -20.05704032 -12.63131989 0 0 Z " fill="#FDFDFD" transform="translate(801,317)"/>
<path d="M0 0 C9.52923559 5.16166928 16.26983585 12.21527775 19.65625 22.72265625 C21.02467182 28.19634352 21.73650561 31.73262247 18.78125 36.78515625 C16.71875 39.47265625 16.71875 39.47265625 15.71875 40.47265625 C11.06744036 41.06571941 7.06192176 41.48003507 3.21875 38.59765625 C1.83650136 35.71797159 1.31034223 33.63947618 0.78125 30.53515625 C-0.11197767 25.36059597 -1.38438884 23.02312975 -5.28125 19.47265625 C-10.48177963 16.47235069 -15.38777529 15.41952675 -21.28125 16.47265625 C-26.0260552 18.28339463 -29.2521967 20.78753624 -31.65625 25.28515625 C-32.87010216 28.06493024 -33.60597591 30.75815457 -34.21875 33.72265625 C-35.28125 37.47265625 -35.28125 37.47265625 -37.46875 39.97265625 C-41.13685781 41.92898042 -43.18156003 42.20474374 -47.28125 41.47265625 C-50.68530666 38.79286696 -51.96870684 37.22454292 -52.7265625 32.9765625 C-53.1020719 24.15209163 -50.59310244 16.89359129 -44.90625 10.16015625 C-32.7045651 -2.66064162 -16.61487285 -7.84834125 0 0 Z " fill="#83A6D3" transform="translate(786.28125,456.52734375)"/>
<path d="M0 0 C0.66 0.33 1.32 0.66 2 1 C-1.80247803 4.226345 -5.55070439 6.77535219 -10 9 C-10.99 8.67 -11.98 8.34 -13 8 C-10.23145402 5.85090038 -7.42165474 3.98221172 -4.375 2.25 C-3.59898437 1.80140625 -2.82296875 1.3528125 -2.0234375 0.890625 C-1.35570312 0.59671875 -0.68796875 0.3028125 0 0 Z " fill="#91B1D9" transform="translate(820,914)"/>
</svg>
