<?xml version="1.0" encoding="UTF-8"?>
<svg version="1.1" xmlns="http://www.w3.org/2000/svg" width="1774" height="887">
<path d="M0 0 C585.42 0 1170.84 0 1774 0 C1774 292.71 1774 585.42 1774 887 C1188.58 887 603.16 887 0 887 C0 594.29 0 301.58 0 0 Z " fill="#FEFDFE" transform="translate(0,0)"/>
<path d="M0 0 C2.9375 0.375 2.9375 0.375 4.9375 2.375 C4.51992359 8.14514683 3.32293475 13.73671938 2.0625 19.375 C1.90136719 20.13039063 1.74023438 20.88578125 1.57421875 21.6640625 C0.44245785 26.77014656 -1.13914864 31.51835215 -3.0625 36.375 C-3.49949219 37.57640625 -3.93648437 38.7778125 -4.38671875 40.015625 C-10.19266427 55.38724008 -18.73620238 69.03114906 -34.0625 76.375 C-34.7225 76.375 -35.3825 76.375 -36.0625 76.375 C-36.0625 77.695 -36.0625 79.015 -36.0625 80.375 C-37.6015625 81.8671875 -37.6015625 81.8671875 -39.6875 83.25 C-43.59968964 85.97878708 -46.77586637 88.92403469 -50.0625 92.375 C-43.9244345 90.46159069 -38.13899673 88.14320825 -32.3125 85.4375 C-16.90052295 78.52300578 -1.56221596 73.54056005 15.0625 79.5 C26.66979731 84.71381736 36.47074219 93.51624647 41.09765625 105.58984375 C44.22657388 119.69180276 42.8373578 134.4159952 36.3125 147.25 C35.96058594 147.94472412 35.60867188 148.63944824 35.24609375 149.35522461 C25.36379029 168.2779894 9.63272491 177.88044141 -10.0625 184.375 C-32.69178318 189.67728795 -54.67739704 183.97793346 -74.0625 172.375 C-74.93261719 171.97410156 -75.80273438 171.57320312 -76.69921875 171.16015625 C-79.305043 169.7706952 -80.50020564 168.90591686 -82.0625 166.375 C-82.91056863 162.67460033 -83.15827473 158.91937788 -83.41381836 155.13916016 C-83.84028209 149.1117235 -84.81520261 143.97428336 -89.0625 139.375 C-92.21869511 137.33518831 -95.37345 136.87805227 -99.0625 136.375 C-99.07667969 135.35921875 -99.09085938 134.3434375 -99.10546875 133.296875 C-99.38912393 123.47785757 -100.28026799 113.84579796 -107.04296875 106.109375 C-110.78355408 102.89695743 -114.32226611 103.208676 -119.0625 103.375 C-120.40234409 103.68111552 -121.73797978 104.00820978 -123.0625 104.375 C-123.28164062 103.34761719 -123.50078125 102.32023437 -123.7265625 101.26171875 C-127.11801522 86.12385687 -133.49933797 72.27232286 -147.05834961 63.49072266 C-149.40175222 62.18613624 -151.78764164 61.21832158 -154.28515625 60.2421875 C-155.62912476 59.71407471 -155.62912476 59.71407471 -157.00024414 59.17529297 C-157.68078857 58.91119629 -158.36133301 58.64709961 -159.0625 58.375 C-159.4804865 33.07717084 -159.4804865 33.07717084 -157.0625 23.375 C-156.85625 22.46492188 -156.65 21.55484375 -156.4375 20.6171875 C-155.08661764 15.35181649 -153.73749034 11.56249341 -149.0625 8.375 C-143.97255691 7.15341366 -140.96701305 8.76903954 -136.6875 11.375 C-128.34815832 17.0526066 -121.52032427 23.67576873 -115.0625 31.375 C-113.06669854 33.71193341 -111.0642742 36.04318198 -109.0625 38.375 C-103.45530422 44.90668584 -103.45530422 44.90668584 -101.05078125 47.7734375 C-92.10008345 58.3306708 -80.0731157 68.64934445 -65.85180664 70.69262695 C-63.51686154 70.84808904 -61.21498621 70.89389786 -58.875 70.875 C-58.04564941 70.86927979 -57.21629883 70.86355957 -56.36181641 70.85766602 C-44.92759926 70.52891844 -35.27908814 66.35778278 -27.0625 58.375 C-15.22386406 45.59591167 -10.50109624 27.43675193 -7.49365234 10.72045898 C-5.59982324 0.68569264 -5.59982324 0.68569264 0 0 Z " fill="#83A7D0" transform="translate(280.0625,354.625)"/>
<path d="M0 0 C1.58997 2.80879558 3.1706936 5.62269688 4.75 8.4375 C5.1934375 9.22060547 5.636875 10.00371094 6.09375 10.81054688 C11.24854069 20.02094494 14.95476738 29.33108777 18.1875 39.375 C18.54263672 40.43460937 18.89777344 41.49421875 19.26367188 42.5859375 C21.47851714 49.44481316 22.70416066 55.80563941 23 63 C23.04890381 63.99628418 23.09780762 64.99256836 23.14819336 66.01904297 C24.81311029 107.93081159 24.81311029 107.93081159 13.046875 121.203125 C8.04388675 125.66157031 2.8473186 129.6716259 -2.6875 133.4375 C-3.30463867 133.86256836 -3.92177734 134.28763672 -4.55761719 134.72558594 C-8.61563923 137.40565709 -12.26288377 138.88717295 -17 140 C-17.01417969 139.05382812 -17.02835938 138.10765625 -17.04296875 137.1328125 C-17.61943488 117.89017586 -22.99586187 99.29697081 -36.61328125 85.1015625 C-41.57350754 80.73396554 -46.88154867 77.82092851 -53.5625 77.4375 C-62.17606557 78.01375967 -69.37542763 82.66261054 -75 89 C-86.86064809 105.16545798 -91.98201365 123.02923046 -90 143 C-88.99197014 147.60844032 -87.0698339 151.77879329 -85 156 C-84.32535164 157.66345178 -83.6575057 159.32969809 -83 161 C-95.49737818 162.56853664 -107.7940343 163.32066842 -120.38891602 163.26074219 C-123.06484538 163.24999058 -125.74010589 163.26073578 -128.41601562 163.2734375 C-143.28779789 163.28579054 -157.73881822 162.29303714 -172.20703125 158.64453125 C-174.60808241 158.09044252 -176.80082551 157.7882783 -179.25 157.625 C-190.78735069 156.56262885 -202.58673234 151.80391077 -213 147 C-213.99515625 146.54882812 -214.9903125 146.09765625 -216.015625 145.6328125 C-224.39917555 141.65600006 -232.57846822 136.80050742 -239 130 C-238 127 -238 127 -235.75 124.8125 C-231.50181555 120.46776591 -228.65279979 115.43884524 -226 110 C-222.49296275 111.63605805 -219.36333048 113.7007209 -216.125 115.8125 C-209.42623093 120.02467686 -202.57113976 122.67741236 -195 125 C-193.83984375 125.39316406 -192.6796875 125.78632812 -191.484375 126.19140625 C-177.9118652 130.40711005 -162.76874875 130.65897624 -149 127 C-148.02675781 126.76667969 -147.05351562 126.53335938 -146.05078125 126.29296875 C-126.27775492 120.96665538 -110.32944504 110.00974065 -99.90234375 92.34765625 C-99.27457031 91.24292969 -98.64679688 90.13820313 -98 89 C-97.22849609 87.66775391 -97.22849609 87.66775391 -96.44140625 86.30859375 C-92.02017547 78.13522052 -90.04350999 69.18288792 -89 60 C-87.98212402 60.15936035 -86.96424805 60.3187207 -85.91552734 60.48291016 C-69.2252608 62.68704936 -50.59761048 62.8542855 -35 56 C-34.31276855 55.70528809 -33.62553711 55.41057617 -32.91748047 55.10693359 C-24.01357708 51.20042978 -16.18605721 46.62428075 -9 40 C-8.50532227 39.55688477 -8.01064453 39.11376953 -7.50097656 38.65722656 C-5.91747935 37.22964292 -4.36177894 35.77708929 -2.8125 34.3125 C-1.87019531 33.42175781 -0.92789063 32.53101563 0.04296875 31.61328125 C2.20837492 29.23707583 2.20837492 29.23707583 2.08984375 26.703125 C0.1766596 21.95787973 -2.39452112 17.58168269 -4.9375 13.15039062 C-5.34226562 12.41884766 -5.74703125 11.68730469 -6.1640625 10.93359375 C-6.72794678 9.9444397 -6.72794678 9.9444397 -7.30322266 8.93530273 C-8.17178714 6.52286031 -7.92828994 5.36345468 -7 3 C-4.44549506 0.61579539 -3.5595477 0 0 0 Z " fill="#84A8D0" transform="translate(421,422)"/>
<path d="M0 0 C0.804375 0.4021875 0.804375 0.4021875 1.625 0.8125 C-0.31380254 21.36380695 -10.6182699 39.49068807 -26.375 52.8125 C-35.40268372 59.76745993 -44.74584069 64.72163334 -55.375 68.8125 C-56.12652344 69.12912598 -56.87804687 69.44575195 -57.65234375 69.77197266 C-63.59458048 72.25294963 -69.47420761 74.01843846 -75.75 75.4375 C-76.67337158 75.65059814 -77.59674316 75.86369629 -78.5480957 76.08325195 C-97.02171517 80.28615878 -115.39431374 82.15433728 -134.31616211 82.01831055 C-136.93938969 81.9999868 -139.5622616 81.99780255 -142.18554688 81.99804688 C-156.20323818 81.96966251 -170.31335646 81.74577182 -184.1875 79.5625 C-185.00444336 79.43681641 -185.82138672 79.31113281 -186.66308594 79.18164062 C-198.83298241 77.20362617 -210.89975242 74.35146425 -222.375 69.8125 C-224.01662109 69.19181641 -224.01662109 69.19181641 -225.69140625 68.55859375 C-246.53839183 60.15457429 -262.84439544 46.44710137 -272.8125 26.0625 C-274.4791625 22.12633963 -274.73577972 19.05166172 -274.375 14.8125 C-271.05772957 13.75124045 -267.72241087 12.77383302 -264.375 11.8125 C-263.22 11.44125 -262.065 11.07 -260.875 10.6875 C-256.10753471 10.85776662 -253.95202067 12.94797677 -250.22265625 15.77734375 C-231.98912834 28.80843846 -208.00317458 34.49584097 -186.23754883 37.48706055 C-184.375 37.8125 -184.375 37.8125 -181.375 38.8125 C-136.33840058 45.80798086 -81.91400308 42.55873715 -40.375 22.8125 C-39.78477051 22.53712402 -39.19454102 22.26174805 -38.58642578 21.97802734 C-30.71192649 18.2833003 -23.1384147 14.21824011 -15.75 9.625 C-15.0993457 9.22128174 -14.44869141 8.81756348 -13.77832031 8.40161133 C-10.68640395 6.43683902 -7.82999205 4.40396912 -5.0625 2 C-2.375 -0.1875 -2.375 -0.1875 0 0 Z " fill="#DFA855" transform="translate(438.375,554.1875)"/>
<path d="M0 0 C5.71517038 3.31882807 9.9615123 7.82951196 14 13 C17.31805922 11.5525245 19.48448066 9.70769461 22.0625 7.1875 C31.41838015 -1.11036463 40.14994064 -3.03647638 52.390625 -2.48046875 C61.21858531 -1.76405415 68.87320323 1.78264187 75.25 7.93359375 C84.88120763 19.30615812 85.31153173 32.59524333 85.30078125 46.90234375 C85.30506638 48.18307266 85.3093515 49.46380157 85.31376648 50.78334045 C85.31947189 53.46841493 85.32098856 56.15309988 85.31567383 58.83813477 C85.30983416 62.27001477 85.32695277 65.70136292 85.3500185 69.13315487 C85.36829669 72.43121392 85.36457173 75.72924317 85.36328125 79.02734375 C85.372491 80.25444565 85.38170074 81.48154755 85.39118958 82.74583435 C85.38496078 83.88794876 85.37873199 85.03006317 85.37231445 86.20678711 C85.37294388 87.20761826 85.3735733 88.2084494 85.3742218 89.23960876 C84.75733973 93.78994723 82.76562337 96.32552227 79.375 99.3125 C75.08754572 101.45622714 71.70673022 102.00018017 67 101 C63.93534193 99.26974513 61.59808969 97.19617938 60 94 C59.90572582 92.17382456 59.87485925 90.34423203 59.87402344 88.515625 C59.87021667 87.36682861 59.86640991 86.21803223 59.86248779 85.03442383 C59.86146057 83.78556396 59.86043335 82.5367041 59.859375 81.25 C59.84573786 79.28908368 59.83207023 77.32816705 59.81666946 75.36726379 C59.77875226 70.52882851 59.7473698 65.69065164 59.74951172 60.85205078 C59.7501501 58.14230811 59.73755 55.433241 59.71051025 52.72363281 C59.68533339 50.17492258 59.67868026 47.6259411 59.69329834 45.07714844 C59.58663537 37.44871781 58.57176447 31.28639657 54 25 C49.05218417 20.91164554 43.8278873 20.41942456 37.546875 20.6796875 C31.58644579 21.42931203 27.73986351 24.45151735 24 29 C20.65712996 35.95755905 20.58853808 42.18482049 20.62890625 49.8203125 C20.61153336 52.31901185 20.59394889 54.81770974 20.57617188 57.31640625 C20.56608065 61.23130909 20.56250917 65.14611981 20.56420898 69.06103516 C20.56064177 72.85607144 20.5333199 76.65040178 20.50390625 80.4453125 C20.51208878 81.61417999 20.5202713 82.78304749 20.52870178 83.98733521 C20.47111619 90.26997202 20.30844838 94.26367327 16 99 C12.00485335 101.73185917 7.67437416 101.67239698 3 101 C-0.8026029 98.9949912 -2.61790841 97.57313738 -5 94 C-5.2515564 91.37727356 -5.2515564 91.37727356 -5.25537109 88.18676758 C-5.26233002 86.99154984 -5.26928894 85.79633209 -5.27645874 84.56489563 C-5.27546173 83.27117538 -5.27446472 81.97745514 -5.2734375 80.64453125 C-5.28200006 79.30033915 -5.29200098 77.9561555 -5.30337524 76.61198425 C-5.34956691 70.90827636 -5.37422356 65.20462093 -5.38085938 59.50073242 C-5.38590101 56.00867665 -5.41028897 52.51717293 -5.44618607 49.02530479 C-5.46063839 47.06020201 -5.45337262 45.09497778 -5.44564819 43.12983704 C-5.53847069 34.65483278 -6.31028704 28.78432098 -12.4375 22.5 C-18.71449148 19.85705622 -26.4593082 19.74886007 -32.9375 22.0625 C-37.02002072 24.64531923 -41.04945383 28.01138391 -42.56289673 32.76980591 C-43.07592815 35.38740161 -43.13980691 37.83122954 -43.15771484 40.49951172 C-43.17310806 42.15175247 -43.17310806 42.15175247 -43.18881226 43.83737183 C-43.19611359 45.022836 -43.20341492 46.20830017 -43.2109375 47.4296875 C-43.23900205 49.94141281 -43.26766648 52.45313148 -43.296875 54.96484375 C-43.33815878 58.92366376 -43.37504892 62.88235916 -43.40136719 66.84130859 C-43.42897217 70.66269505 -43.47484002 74.48351807 -43.5234375 78.3046875 C-43.52669037 79.48610321 -43.52994324 80.66751892 -43.53329468 81.88473511 C-43.68796284 92.22738117 -43.68796284 92.22738117 -47 97 C-50.41357866 100.08847593 -53.03705837 101.26431338 -57.5625 101.4375 C-61.45724694 101.23458041 -64.00053395 100.64658769 -67 98 C-69.97199327 93.20921679 -70.44549872 89.04484378 -70.43579102 83.53540039 C-70.44586685 82.70696121 -70.45594269 81.87852203 -70.46632385 81.02497864 C-70.49471287 78.29906554 -70.50067539 75.57370777 -70.50390625 72.84765625 C-70.51355234 70.94485754 -70.52364519 69.04206105 -70.53416443 67.13926697 C-70.55210216 63.15569908 -70.55768775 59.17232612 -70.5559082 55.1887207 C-70.55560319 50.09298708 -70.59658732 44.99850614 -70.64822483 39.9030695 C-70.68163432 35.97470902 -70.68766443 32.04665014 -70.68607903 28.11816216 C-70.6896109 26.23992017 -70.70283447 24.3616697 -70.72607613 22.48356819 C-70.75558944 19.8528248 -70.74680675 17.22478429 -70.72875977 14.59399414 C-70.74561829 13.82442383 -70.76247681 13.05485352 -70.77984619 12.26196289 C-70.68746787 6.94272362 -69.14722017 4.20566888 -65.56191921 0.30617428 C-62.41648734 -2.32423206 -59.40611951 -1.6958746 -55.5546875 -1.4140625 C-52.23067002 -0.87530737 -50.44470891 -0.37062682 -48 2 C-46.45930904 4.58652423 -45.17734861 7.23092868 -44 10 C-43.5153125 9.54109375 -43.030625 9.0821875 -42.53125 8.609375 C-31.25389843 -1.71373913 -14.7483957 -6.17718377 0 0 Z " fill="#84A7D0" transform="translate(830,429)"/>
<path d="M0 0 C0.9182959 -0.0103125 1.8365918 -0.020625 2.78271484 -0.03125 C17.15809996 0.1542056 28.21483888 6.24548821 38.55078125 15.96484375 C49.05465405 27.13955212 52.51374808 40.05423365 52.34570312 55.05224609 C51.85780158 68.70570374 46.89812987 80.07827209 37.6875 90.1875 C26.57260472 100.44172861 11.3400033 105.44412326 -3.703125 104.8828125 C-15.05865528 103.40503801 -25.392963 100.04920018 -34.125 92.4375 C-34.76695313 91.90382813 -35.40890625 91.37015625 -36.0703125 90.8203125 C-45.47781524 82.3087624 -50.73672899 69.07361074 -51.5078125 56.5859375 C-51.84251811 46.92963503 -51.30832727 38.3099817 -47.125 29.4375 C-46.75117187 28.63183594 -46.37734375 27.82617188 -45.9921875 26.99609375 C-39.93108042 15.13478818 -30.04940194 6.97794755 -17.75 1.9375 C-11.88302035 0.1913751 -6.07729712 0.05676875 0 0 Z " fill="#DEA856" transform="translate(1416.125,426.5625)"/>
<path d="M0 0 C3.9650783 1.5659745 6.59988253 3.3998238 9 7 C9.2784729 9.22099304 9.2784729 9.22099304 9.31884766 11.83862305 C9.33871735 12.8194133 9.35858704 13.80020355 9.37905884 14.81071472 C9.39061005 15.86704605 9.40216125 16.92337738 9.4140625 18.01171875 C9.43342865 19.09508011 9.4527948 20.17844147 9.4727478 21.29463196 C9.53258344 24.75884093 9.5789453 28.22308305 9.625 31.6875 C9.66317607 34.03451979 9.70222758 36.38152552 9.7421875 38.72851562 C9.83828824 44.48555234 9.92332413 50.24267359 10 56 C10.47322693 55.5148996 10.94645386 55.02979919 11.434021 54.52999878 C12.05875305 53.8960318 12.68348511 53.26206482 13.32714844 52.60888672 C13.94475037 51.97941132 14.56235229 51.34993591 15.19866943 50.7013855 C17.37028878 48.65025633 19.53715387 47.36198959 22.25 46.125 C23.49523438 45.54105469 23.49523438 45.54105469 24.765625 44.9453125 C32.77364263 41.55730504 43.54565254 41.7457151 51.97265625 43.68359375 C54.16937629 44.61729662 56.02944444 45.6570099 58 47 C58.67933594 47.42410156 59.35867188 47.84820312 60.05859375 48.28515625 C69.90793844 54.9693051 74.43739964 63.5527871 77 75 C77.51834334 79.88428129 77.56253873 84.71247932 77.53125 89.62109375 C77.53395419 90.978198 77.53784425 92.33530035 77.54284668 93.69239807 C77.54868437 96.50858375 77.54035823 99.32425572 77.52148438 102.14038086 C77.49854192 105.7371231 77.51194836 109.33268102 77.53577423 112.92938137 C77.55025804 115.72022879 77.5456173 118.51079689 77.53526306 121.30165291 C77.53133109 123.26804004 77.54339039 125.23443841 77.55578613 127.20079041 C77.43982501 138.22677587 77.43982501 138.22677587 73 143 C69.33652822 146.14011867 65.90743374 146.57046545 61.22265625 146.4296875 C57.41649091 145.69387346 55.64329294 143.77545759 53 141 C51.71156412 138.42312825 51.86133276 136.55300101 51.84228516 133.66748047 C51.83202301 132.5522702 51.82176086 131.43705994 51.81118774 130.28805542 C51.80388641 129.07666901 51.79658508 127.86528259 51.7890625 126.6171875 C51.76098348 124.06249371 51.73231896 121.5078063 51.703125 118.953125 C51.66077943 114.91767847 51.6240108 110.88227008 51.59863281 106.84667969 C51.57095472 102.95743006 51.52506848 99.0687258 51.4765625 95.1796875 C51.47330963 93.98044647 51.47005676 92.78120544 51.46670532 91.54562378 C51.34101221 82.94080313 50.49257189 75.31222267 44 69 C38.01390051 65.38339823 31.8787667 65.27838551 25 66 C19.33332682 67.86403723 15.25433172 70.88061192 12.1875 76.0625 C10.45912439 80.33795545 9.87505962 83.79160815 9.8581543 88.40771484 C9.85111984 89.48918793 9.84408539 90.57066101 9.83683777 91.68490601 C9.83267349 92.8484964 9.82850922 94.01208679 9.82421875 95.2109375 C9.80102455 97.67709191 9.77690738 100.14323777 9.75195312 102.609375 C9.71681386 106.49582675 9.68747599 110.38196325 9.67407227 114.26855469 C9.65860151 118.02056938 9.61840067 121.77166543 9.57421875 125.5234375 C9.57612717 126.68297943 9.57803558 127.84252136 9.58000183 129.03720093 C9.4852513 135.28714837 9.29432418 139.29472379 5 144 C1.0299012 146.42617149 -3.45054231 146.73895301 -8 146 C-11.75212276 143.98497111 -13.63644095 142.54533858 -16 139 C-16.26006222 136.58333015 -16.26006222 136.58333015 -16.27415466 133.66165161 C-16.28412979 132.55408508 -16.29410492 131.44651855 -16.30438232 130.3053894 C-16.30537933 128.48190475 -16.30537933 128.48190475 -16.30639648 126.62158203 C-16.31472 125.3417041 -16.32304352 124.06182617 -16.33161926 122.74316406 C-16.35357455 119.23071259 -16.36236451 115.71834817 -16.36744571 112.20583582 C-16.37108809 110.01122536 -16.37732752 107.81663774 -16.3844471 105.62203598 C-16.40894523 97.96529894 -16.42199426 90.30862969 -16.42553711 82.65185547 C-16.42917266 75.51545346 -16.45906798 68.37948147 -16.50094169 61.24321091 C-16.53563528 55.11571946 -16.55108538 48.98837057 -16.55178314 42.86078155 C-16.5525763 39.20127999 -16.5613315 35.54221638 -16.58978081 31.88281631 C-16.620807 27.8006379 -16.61190652 23.71948403 -16.59936523 19.63720703 C-16.61419952 18.42559906 -16.62903381 17.21399109 -16.64431763 15.96566772 C-16.57244383 7.77094271 -16.57244383 7.77094271 -13.65003967 3.83517456 C-8.89548173 0.54260356 -5.81885332 -0.88455096 0 0 Z " fill="#84A7D0" transform="translate(1105,384)"/>
<path d="M0 0 C4.20854847 1.5881315 6.76642988 3.084736 9 7 C9.27474266 9.65034921 9.37998511 12.05952938 9.34057617 14.70605469 C9.34123329 15.86272896 9.34123329 15.86272896 9.34190369 17.04277039 C9.33981727 19.58606476 9.31649365 22.12869609 9.29296875 24.671875 C9.28737226 26.43735392 9.28310241 28.20283751 9.28010559 29.96832275 C9.26866096 34.61103213 9.23919709 39.25345917 9.20599365 43.89605713 C9.17528453 48.63509298 9.16159845 53.37417454 9.14648438 58.11328125 C9.11432701 67.4089781 9.06313527 76.70446555 9 86 C9.66 86 10.32 86 11 86 C11.25729889 85.42131165 11.51459778 84.84262329 11.7796936 84.24639893 C13.11163357 81.79449954 14.60189076 80.0768755 16.52490234 78.05761719 C17.24680756 77.29713074 17.96871277 76.53664429 18.7124939 75.75311279 C22.03855765 72.31102406 25.37343652 68.87815907 28.72705078 65.46289062 C30.48723895 63.65953354 32.23479673 61.84375839 33.96923828 60.015625 C36.47934682 57.37129372 39.02701827 54.76889812 41.5859375 52.171875 C42.73042862 50.94389191 42.73042862 50.94389191 43.89804077 49.69110107 C48.24007568 45.38104538 51.12655825 43.48237732 57.35400391 43.32910156 C61.30228616 43.50545604 63.698208 44.00902016 66.75 46.5625 C68.77028826 49.08935021 69.03334298 50.21117221 69.5625 53.5625 C68.60881831 59.39055476 65.46219374 62.78884557 61.359375 66.87109375 C60.45316406 67.77537109 59.54695313 68.67964844 58.61328125 69.61132812 C58.14229004 70.07611572 57.67129883 70.54090332 57.18603516 71.01977539 C55.76288391 72.42478037 54.34819139 73.83833649 52.93359375 75.25195312 C48.11016633 80.04467981 43.23947464 84.66513079 38 89 C39.61817175 92.40829937 41.47765964 94.79530758 44.0625 97.5625 C47.23785117 101.02560159 50.29828184 104.53195256 53.25 108.1875 C57.07539249 112.91497973 61.01327068 117.5328502 65 122.125 C65.5765332 122.78910889 66.15306641 123.45321777 66.74707031 124.13745117 C69.30671926 127.13022162 69.30671926 127.13022162 72 130 C72.57002878 134.52285132 72.61157067 137.97343495 70.25 141.9375 C66.26268538 145.5925384 63.67754327 146.21678957 58.1953125 146.4609375 C51.84682175 145.12798037 47.82269533 139.86040958 43.875 135.125 C43.31731934 134.46878662 42.75963867 133.81257324 42.18505859 133.13647461 C41.02600479 131.77204575 39.86993476 130.40507684 38.71679688 129.03564453 C36.5456163 126.46122707 34.35386901 123.90489608 32.15966797 121.35009766 C31.14667571 120.17015345 30.13524831 118.98886378 29.12548828 117.80615234 C25.84653461 113.96686413 22.5139834 110.18198182 19.109375 106.453125 C18 105 18 105 18 103 C13.77895001 105.72190685 13.77895001 105.72190685 10 109 C9.67679527 111.92889784 9.67679527 111.92889784 9.69140625 115.36328125 C9.66626953 116.64267578 9.64113281 117.92207031 9.61523438 119.24023438 C9.58655767 121.27431996 9.56253863 123.30832862 9.54370117 125.3425293 C9.52194545 127.30795533 9.48187351 129.27315143 9.44140625 131.23828125 C9.42795166 132.41430908 9.41449707 133.59033691 9.40063477 134.80200195 C8.96067646 138.31389337 8.10835046 140.1843684 6 143 C1.21242054 146.22883266 -2.40805268 146.53256641 -8 146 C-11.26803156 144.69278738 -12.62246539 143.54923073 -14.60948181 140.65855408 C-16.64233798 135.30996225 -16.44236745 130.26542716 -16.43579102 124.58813477 C-16.44586685 123.34029205 -16.45594269 122.09244934 -16.46632385 120.80679321 C-16.48989425 117.39546215 -16.49985357 113.98467895 -16.50177121 110.57330441 C-16.5039082 108.43945502 -16.51032138 106.30566253 -16.51826286 104.17182732 C-16.54598593 96.72022751 -16.55827189 89.26878834 -16.5559082 81.81713867 C-16.55410547 74.88226194 -16.58577641 67.948085 -16.63313919 61.01338536 C-16.67241752 55.04883978 -16.68845782 49.08452252 -16.68654197 43.11984867 C-16.68577867 39.56197937 -16.69423899 36.00473277 -16.72607613 32.44699287 C-16.76062591 28.47813894 -16.74684842 24.51023944 -16.72875977 20.54125977 C-16.74561829 19.3696077 -16.76247681 18.19795563 -16.77984619 16.99079895 C-16.70560713 10.58146329 -16.10956737 6.79628102 -11.48219204 2.18800259 C-7.98473104 -0.61527297 -4.29325165 -0.44771339 0 0 Z " fill="#DEA956" transform="translate(1602,384)"/>
<path d="M0 0 C0.76279266 -0.0049649 1.52558533 -0.00992981 2.31149292 -0.01504517 C4.84137873 -0.02968007 7.37120181 -0.03647142 9.90112305 -0.04199219 C11.65748598 -0.0477431 13.4138489 -0.05350084 15.17021179 -0.05926514 C18.85647881 -0.06977928 22.542724 -0.07561906 26.22900391 -0.07910156 C30.95024452 -0.08458335 35.6711963 -0.10860281 40.39234638 -0.13707352 C44.02205749 -0.15570814 47.65169919 -0.16090596 51.28145409 -0.16243744 C53.02176681 -0.16546327 54.76207833 -0.17348949 56.50234413 -0.18662262 C58.93928527 -0.2036985 61.37552312 -0.20179918 63.8125 -0.1953125 C64.53008987 -0.20452728 65.24767975 -0.21374207 65.98701477 -0.22323608 C70.36138675 -0.18680494 73.12205065 0.47459321 76.6003418 3.16113281 C78.88950005 7.0854041 78.99990622 10.6860113 78.6003418 15.16113281 C76.7754243 19.38725755 74.67143783 21.12512351 70.6003418 23.16113281 C67.75920105 23.52189636 67.75920105 23.52189636 64.61669922 23.50170898 C63.43585251 23.50148239 62.2550058 23.5012558 61.03837585 23.50102234 C59.14125603 23.47779655 59.14125603 23.47779655 57.20581055 23.45410156 C55.90331863 23.44985672 54.60082672 23.44561188 53.25886536 23.4412384 C49.80801913 23.42982294 46.35755597 23.40038498 42.90686035 23.36712646 C39.38091303 23.3363539 35.85490154 23.32255304 32.32885742 23.30761719 C25.41901468 23.27710567 18.51022177 23.21837944 11.6003418 23.16113281 C11.6003418 35.37113281 11.6003418 47.58113281 11.6003418 60.16113281 C15.35666992 60.11472656 19.11299805 60.06832031 22.9831543 60.02050781 C26.62702076 59.98929996 30.27087226 59.96501902 33.91479492 59.94140625 C36.44448527 59.92130876 38.97412926 59.89402613 41.50366211 59.859375 C45.14277597 59.81077725 48.7812748 59.78814469 52.4206543 59.77050781 C53.54899689 59.74986267 54.67733948 59.72921753 55.83987427 59.70794678 C62.06584696 59.70617332 65.92253014 59.8804665 70.6003418 64.16113281 C73.07626058 67.87501099 73.13941648 70.85695842 72.6003418 75.16113281 C70.80505542 79.41312687 68.6623958 81.09817439 64.6003418 83.16113281 C61.98698425 83.52189636 61.98698425 83.52189636 59.16748047 83.50170898 C58.10675827 83.50148239 57.04603607 83.5012558 55.95317078 83.50102234 C54.25291496 83.47779655 54.25291496 83.47779655 52.51831055 83.45410156 C51.3489949 83.44985672 50.17967926 83.44561188 48.97492981 83.4412384 C45.2456648 83.42446566 41.51694308 83.38681474 37.7878418 83.34863281 C35.25725065 83.33358422 32.72665102 83.31989612 30.19604492 83.30761719 C23.99729231 83.27456664 17.79885587 83.22438052 11.6003418 83.16113281 C11.60700363 83.80148972 11.61366547 84.44184662 11.62052917 85.10160828 C11.68691972 91.76877825 11.732158 98.43585425 11.76513672 105.10327148 C11.78021941 107.59126602 11.80068833 110.07923398 11.82666016 112.56713867 C11.86306517 116.14410969 11.88007363 119.72072903 11.89331055 123.29785156 C11.9087944 124.40948166 11.92427826 125.52111176 11.94023132 126.66642761 C11.94045792 127.70712906 11.94068451 128.74783051 11.94091797 129.82006836 C11.9475798 130.73273972 11.95424164 131.64541107 11.96110535 132.58573914 C11.51937441 135.73913713 10.45583323 137.59261906 8.6003418 140.16113281 C3.81276234 143.38996547 0.19228912 143.69369922 -5.3996582 143.16113281 C-9.57976335 141.35608741 -12.06237131 139.05178719 -14.3996582 135.16113281 C-15.01354816 131.09219699 -14.95603119 127.04720089 -14.93310547 122.9387207 C-14.94172104 121.6991713 -14.95033661 120.45962189 -14.95921326 119.18251038 C-14.97801024 115.78961622 -14.97877357 112.39769969 -14.96989179 109.00482869 C-14.96477528 106.16935174 -14.97207985 103.33396205 -14.97936386 100.49849409 C-14.99635559 93.80759335 -14.99280477 87.11692071 -14.97607422 80.42602539 C-14.95915435 73.5304024 -14.97498651 66.63541252 -15.0072971 59.73985869 C-15.03401472 53.81270169 -15.04126319 47.88574152 -15.03278202 41.95853037 C-15.02785889 38.42146563 -15.03003434 34.88478172 -15.05056953 31.34776497 C-15.07237871 27.40257206 -15.05350325 23.45813907 -15.03076172 19.51293945 C-15.04245392 18.3454718 -15.05414612 17.17800415 -15.06619263 15.97515869 C-14.96259469 7.14929864 -14.96259469 7.14929864 -11.98521423 3.4516449 C-7.96853671 -0.10668001 -5.15769033 0.00796721 0 0 Z " fill="#E0AA58" transform="translate(1224.399658203125,386.8388671875)"/>
<path d="M0 0 C2.80169398 1.3563341 3.91610376 2.57817465 6 5 C7.05494781 8.16484344 7.12448923 10.39813955 7.12597656 13.72143555 C7.12978333 14.89663254 7.13359009 16.07182953 7.13751221 17.28263855 C7.13853943 18.55448502 7.13956665 19.82633148 7.140625 21.13671875 C7.15426022 23.1363634 7.16792553 25.13600835 7.18333054 27.13564014 C7.22125493 32.06596326 7.25262288 36.99602788 7.25048828 41.92651367 C7.24985134 44.691087 7.26238438 47.45499581 7.28948975 50.21943665 C7.31473944 52.82038446 7.32127575 55.42159924 7.30670166 58.02262878 C7.40695243 65.29594505 8.10077502 70.42444886 13 76 C17.38878251 80.001537 21.57800767 80.276728 27.296875 80.2265625 C31.47060081 79.87674155 35.16132806 78.62807487 39 77 C39.70382812 76.71898437 40.40765625 76.43796875 41.1328125 76.1484375 C44.85392803 73.85971791 46.07941297 68.67884314 47.38018799 64.66369629 C48.57897699 59.51179579 48.37801244 54.31020785 48.3359375 49.046875 C48.34843937 46.54687235 48.361476 44.04687233 48.375 41.546875 C48.37894242 37.63402122 48.37489379 33.72142361 48.36035156 29.80859375 C48.3518021 26.0126321 48.37341541 22.21774214 48.3984375 18.421875 C48.38509369 17.25098328 48.37174988 16.08009155 48.35800171 14.87371826 C48.44031375 5.85135328 48.44031375 5.85135328 51.47509766 2.78613281 C52.30831543 2.19670898 53.1415332 1.60728516 54 1 C54.33 0.67 54.66 0.34 55 0 C64.85440613 -1.07279693 64.85440613 -1.07279693 69.09375 1.046875 C71.19970314 2.80183595 72.77095376 4.54190752 74 7 C74.11402818 9.71411897 74.16784097 12.40316788 74.17700195 15.11816406 C74.18357315 15.957379 74.19014435 16.79659393 74.19691467 17.66123962 C74.21666849 20.44603561 74.22831555 23.23077759 74.23828125 26.015625 C74.24235678 26.96613487 74.2464323 27.91664474 74.25063133 28.89595795 C74.27150203 33.9278695 74.28579881 38.95975372 74.29516602 43.99169922 C74.3062261 49.18821347 74.34061855 54.384299 74.38033772 59.58066177 C74.40649169 63.57670891 74.41485683 67.57265379 74.41844749 71.56877899 C74.42331744 73.48411704 74.43494305 75.39945041 74.45348549 77.3147049 C74.47784864 79.99823374 74.47691705 82.68065209 74.4699707 85.36425781 C74.48278076 86.15305832 74.49559082 86.94185883 74.50878906 87.75456238 C74.45994188 92.94182105 73.41796883 95.8778747 70 100 C65.99969219 102.44463255 61.57281697 102.61094316 57 102 C53.41447119 100.36312815 52.20684945 99.31027417 50 96 C49.74239721 93.30547479 49.91099947 90.71451625 50 88 C49.34 88 48.68 88 48 88 C47.75378906 88.58652344 47.50757813 89.17304687 47.25390625 89.77734375 C45.79463982 92.36401852 44.26566893 93.72706524 41.9375 95.5625 C41.22464844 96.14128906 40.51179687 96.72007812 39.77734375 97.31640625 C32.88405822 101.49503644 26.02030604 102.53531995 18.0625 102.4375 C17.18295654 102.42847656 16.30341309 102.41945313 15.3972168 102.41015625 C5.20052773 102.13771479 -1.57950053 99.34912317 -9.0234375 92.2734375 C-17.91433981 82.04714275 -18.32249926 69.85372524 -18.3359375 56.95703125 C-18.34237456 55.50070569 -18.34910358 54.0443814 -18.35610962 52.58805847 C-18.36802843 49.54964191 -18.37179555 46.51133865 -18.37060547 43.47290039 C-18.37040145 39.58568606 -18.39781166 35.69919602 -18.43214989 31.81215382 C-18.45440379 28.81036552 -18.45844365 25.80875283 -18.45738602 22.80689049 C-18.45974009 21.37358773 -18.46855282 19.94028 -18.48405075 18.5070591 C-18.50369604 16.5045582 -18.49535393 14.50184224 -18.48583984 12.49926758 C-18.48868988 11.36201736 -18.49153992 10.22476715 -18.49447632 9.05305481 C-17.89185996 5.33230881 -16.60040338 3.6769527 -14 1 C-9.79866307 -1.10066847 -4.56281034 -0.54135038 0 0 Z " fill="#83A7D0" transform="translate(662,428)"/>
<path d="M0 0 C11.7839187 6.67755393 19.64787757 17.24317149 24 30 C25.82484486 37.52867931 27.00306202 45.28560853 25.375 52.9375 C24 55 24 55 21.4375 56.1875 C17.01087153 55.94604754 15.0764629 54.24474587 11.5546875 51.6953125 C-2.38787046 42.44291165 -19.09898602 41.15363921 -35.1875 44.0625 C-50.27627967 47.74896321 -63.48237418 57.2707383 -72.21875 70.03515625 C-76.75132152 77.57950228 -80.07645948 85.7166352 -83 94 C-89.66096988 93.25064089 -93.54209821 88.66286279 -98 84 C-104.00972052 76.0824317 -104.95395469 68.87946176 -104 59 C-101.69415327 52.41334364 -96.15150165 47.39683647 -90.20703125 43.96484375 C-86.39366898 42.15496983 -83.18149202 41.69403717 -79 42 C-79.495 41.236875 -79.99 40.47375 -80.5 39.6875 C-82.84209114 33.92985929 -83.38951534 28.30328005 -80.93359375 22.46484375 C-77.05693968 16.13755278 -72.00351627 12.33450542 -65 10 C-54.07138249 8.82215446 -46.55991921 11.11833913 -37 16 C-36.99742187 15.43152344 -36.99484375 14.86304688 -36.9921875 14.27734375 C-36.71944001 8.83148546 -35.70232365 5.44764122 -31.86328125 1.5078125 C-21.88051036 -6.57048847 -11.08911002 -5.005698 0 0 Z " fill="#DFA854" transform="translate(365,253)"/>
<path d="M0 0 C3.21164337 2.11676495 4.74353528 3.50017088 6.75 6.8125 C7.32750192 10.42920526 7.25517276 14.00603131 7.20410156 17.66137695 C7.20497772 19.30107201 7.20497772 19.30107201 7.20587158 20.97389221 C7.20308727 24.58317943 7.17197731 28.19163848 7.140625 31.80078125 C7.13316389 34.30469817 7.12747034 36.80862093 7.12347412 39.31254578 C7.10976775 45.22697962 7.07824988 51.14114822 7.03807616 57.05544585 C6.98893015 64.45162462 6.96748574 71.84784032 6.9453125 79.24414062 C6.90242397 92.43374438 6.8349298 105.6231034 6.75 118.8125 C7.81995712 118.79584541 7.81995712 118.79584541 8.91152954 118.77885437 C15.64953293 118.67846975 22.3873262 118.60244323 29.12590981 118.55343914 C32.58996225 118.52739774 36.05339438 118.49210308 39.51708984 118.43530273 C43.50350394 118.37034314 47.48967106 118.34627413 51.4765625 118.32421875 C52.71427399 118.29841232 53.95198547 118.2726059 55.22720337 118.24601746 C64.83010185 118.24289311 64.83010185 118.24289311 68.52270508 121.20263672 C71.77060695 125.00841015 72.1297459 127.91895624 71.75 132.8125 C70.25072597 137.07359462 68.65401517 139.55466291 64.75 141.8125 C62.18657342 142.10222366 59.86818446 142.22297457 57.30688477 142.20068359 C56.1915184 142.20856903 56.1915184 142.20856903 55.05361938 142.21661377 C52.59933367 142.22980095 50.1456984 142.22107965 47.69140625 142.2109375 C45.98274105 142.21295883 44.27407668 142.21587076 42.56541443 142.21963501 C38.98517642 142.22405679 35.40516305 142.21763286 31.82495117 142.20361328 C27.24047458 142.18653434 22.65652539 142.19635515 18.07206821 142.21433067 C14.54355412 142.22518354 11.01516455 142.22171506 7.48664665 142.2139473 C5.7965889 142.21194877 4.10651976 142.21439236 2.4164753 142.22138596 C0.05151666 142.22902385 -2.31259454 142.21736367 -4.67749023 142.20068359 C-5.37323654 142.20675629 -6.06898285 142.21282898 -6.78581238 142.21908569 C-11.11305516 142.16268018 -13.90461159 141.60871918 -17.25 138.8125 C-21.26983529 133.33864084 -20.67978499 127.25608394 -20.65405273 120.75195312 C-20.66091599 119.5415184 -20.66777924 118.33108368 -20.67485046 117.08396912 C-20.68998441 113.77598503 -20.69162146 110.46856591 -20.68590808 107.16058922 C-20.68281095 104.39466406 -20.68891436 101.62878958 -20.69494683 98.86287165 C-20.70897684 92.33643508 -20.70744304 85.81012946 -20.69604492 79.28369141 C-20.68456003 72.55911046 -20.6986487 65.83492816 -20.7254414 59.11039972 C-20.74761598 53.3276141 -20.754232 47.54495346 -20.74836498 41.76212835 C-20.74499897 38.31231476 -20.74738663 34.8627568 -20.76461601 31.41297913 C-20.78299134 27.56617665 -20.76887991 23.71986274 -20.75170898 19.87304688 C-20.76137695 18.73520248 -20.77104492 17.59735809 -20.78100586 16.42503357 C-20.72319355 10.2444451 -20.4285926 6.49455024 -16.25 1.8125 C-11.25059415 -2.35367154 -5.82611284 -2.128772 0 0 Z " fill="#84A8D0" transform="translate(559.25,387.1875)"/>
<path d="M0 0 C8.85413577 6.4697186 8.85413577 6.4697186 9.6875 11.5625 C8.89721555 16.56763485 6.65843248 19.59156752 3.125 23.125 C-2.94495916 23.90822054 -6.14929258 23.1839358 -11.4375 20.125 C-18.87364705 16.13626212 -25.66137048 15.84638345 -33.875 17.125 C-40.76248005 19.75334566 -45.83365772 23.79250083 -48.9921875 30.49609375 C-53.3981854 41.20722657 -52.7455718 51.28739896 -48.875 62.125 C-45.45093371 68.87599595 -39.98749379 72.68821589 -32.875 75.125 C-23.87685209 76.10499631 -15.21350715 75.04514905 -7.625 69.9375 C-4.3029876 67.74799183 -2.78086246 67.47402292 1.125 68.125 C4.7828218 70.16493908 6.79446174 71.62919262 9.125 75.125 C9.56701877 80.60603272 9.5821933 83.6313586 6.125 88.125 C3.85639331 89.5471542 1.78071483 90.69846117 -0.625 91.8125 C-1.22054688 92.10705078 -1.81609375 92.40160156 -2.4296875 92.70507812 C-15.27157326 98.88975254 -33.09303948 99.74657631 -46.8125 95.5625 C-58.74652384 90.5060099 -68.39156291 81.67421095 -73.77734375 69.84375 C-80.05544485 54.29372023 -81.14341948 38.97521547 -74.65625 23.15234375 C-68.03907747 10.08342801 -57.7264003 0.77726342 -44 -4.3125 C-30.01783605 -8.19271775 -12.44987749 -7.86734929 0 0 Z " fill="#84A7D0" transform="translate(1062.875,432.875)"/>
<path d="M0 0 C2.70898462 1.96184473 5.08210178 4.03913303 7.4453125 6.40234375 C8.18587085 11.26763986 8.16077603 15.23375332 5.5703125 19.46484375 C2.03523722 22.68800062 -0.54616686 22.73244007 -5.1796875 22.6953125 C-8.99014272 22.22527279 -11.33402836 20.46842697 -14.5546875 18.40234375 C-21.88536908 15.46590596 -30.84099487 14.59143359 -38.3203125 17.46484375 C-44.94093252 21.60836104 -50.22385178 27.90587212 -52.5546875 35.40234375 C-53.85027435 45.80328815 -53.37760131 56.41480287 -47.5546875 65.40234375 C-42.70835958 71.15102143 -37.80709137 73.92242868 -30.24609375 74.61328125 C-22.50502675 74.92727149 -15.41986292 73.30025978 -8.8046875 69.21484375 C-5.16914761 67.18733112 -3.62370547 66.55463167 0.4453125 67.40234375 C3.43274851 68.95048873 5.53103949 70.62143711 7.4453125 73.40234375 C8.55302263 78.06364743 8.16830943 81.92348639 6.0703125 86.21484375 C-3.74920265 94.39777304 -15.95910965 96.96674048 -28.4296875 96.83984375 C-29.48889404 96.83082031 -30.54810059 96.82179688 -31.6394043 96.8125 C-46.42757522 96.48440561 -57.0470922 91.41967945 -67.3671875 80.71484375 C-75.91846722 70.31352756 -78.91336644 57.77447427 -78.9296875 44.65234375 C-78.96642578 43.1209375 -78.96642578 43.1209375 -79.00390625 41.55859375 C-79.0531356 28.62768524 -73.96563619 17.45772056 -65.30078125 7.921875 C-48.19631031 -8.46876569 -20.50193517 -12.82154661 0 0 Z " fill="#DEA957" transform="translate(1561.5546875,433.59765625)"/>
<path d="M0 0 C3.1985654 1.74952846 5.02024638 3.15341645 7.05859375 6.2109375 C7.31865597 8.62760735 7.31865597 8.62760735 7.33274841 11.54928589 C7.34272354 12.65685242 7.35269867 13.76441895 7.36297607 14.9055481 C7.36364075 16.12120453 7.36430542 17.33686096 7.36499023 18.58935547 C7.37331375 19.8692334 7.38163727 21.14911133 7.39021301 22.46777344 C7.4121683 25.98022491 7.42095826 29.49258933 7.42603946 33.00510168 C7.42968184 35.19971214 7.43592127 37.39429976 7.44304085 39.58890152 C7.46753898 47.24563856 7.48058801 54.90230781 7.48413086 62.55908203 C7.48776641 69.69548404 7.51766173 76.83145603 7.55953544 83.96772659 C7.59422903 90.09521804 7.60967913 96.22256693 7.61037689 102.35015595 C7.61117005 106.00965751 7.61992525 109.66872112 7.64837456 113.32812119 C7.67940075 117.4102996 7.67050027 121.49145347 7.65795898 125.57373047 C7.67279327 126.78533844 7.68762756 127.99694641 7.70291138 129.24526978 C7.62297622 138.35911469 7.62297622 138.35911469 4.63441467 141.41873169 C3.78439377 142.01015961 2.93437286 142.60158752 2.05859375 143.2109375 C1.46046875 143.6440625 0.86234375 144.0771875 0.24609375 144.5234375 C-4.85524106 146.12671415 -8.64285863 145.86021131 -13.31640625 143.5234375 C-16.69600033 140.54617605 -17.75728515 138.05227607 -18.20426178 133.58220005 C-18.21021111 132.63593722 -18.21616043 131.6896744 -18.22229004 130.71473694 C-18.23371033 129.62269455 -18.24513062 128.53065216 -18.25689697 127.40551758 C-18.25913269 126.21732422 -18.26136841 125.02913086 -18.26367188 123.80493164 C-18.27360168 122.54587509 -18.28353149 121.28681854 -18.29376221 119.98960876 C-18.31992573 116.5433329 -18.33288249 113.09713479 -18.34178352 109.65077519 C-18.34765647 107.49601343 -18.35586804 105.34127267 -18.36479187 103.18652153 C-18.39211462 96.43971233 -18.41146324 89.69295144 -18.41919565 82.94609076 C-18.42816196 75.16641596 -18.46329079 67.3874431 -18.52119684 59.60798174 C-18.56445086 53.58744024 -18.58460511 47.56709617 -18.58727789 41.54640096 C-18.5893719 37.95331279 -18.60114005 34.36088567 -18.63691711 30.7679615 C-18.6760513 26.7603208 -18.66729402 22.75414857 -18.65429688 18.74633789 C-18.67272644 17.56016876 -18.69115601 16.37399963 -18.71014404 15.15188599 C-18.61893931 6.18673319 -18.61893931 6.18673319 -15.08435059 2.48997498 C-10.43083085 -0.88442328 -5.57308301 -2.26511623 0 0 Z " fill="#DEA856" transform="translate(1337.94140625,384.7890625)"/>
<path d="M0 0 C7.36168423 -0.37958684 13.99853949 1.16496565 19.703125 6.01171875 C26.24727238 12.99580881 28.18113347 20.20349457 28.0625 29.62109375 C28.05565186 30.45600342 28.04880371 31.29091309 28.04174805 32.15112305 C27.80055949 41.42017096 25.32801303 48.69896474 18.625 55.24609375 C11.26349261 60.50914846 3.43658061 61.0377592 -5.375 60.24609375 C-12.93471458 58.24123701 -17.71868486 52.54791385 -21.69921875 46.1015625 C-25.86063914 37.53049665 -26.05408761 26.76134503 -23.3046875 17.73046875 C-20.07762 10.7120378 -15.65655921 4.59936912 -8.4375 1.3828125 C-5.64095509 0.55399778 -2.89349321 0.2998192 0 0 Z " fill="#FDFCFB" transform="translate(1414.375,448.75390625)"/>
<path d="M0 0 C3.79820632 1.58258596 5.93936054 3.45860224 8 7 C8.29556339 9.8250634 8.4203464 12.4289272 8.40405273 15.25341797 C8.41091599 16.08317139 8.41777924 16.9129248 8.42485046 17.76782227 C8.44314424 20.50945168 8.43927682 23.25051016 8.43359375 25.9921875 C8.43815484 27.90023993 8.4434602 29.80829072 8.44947815 31.71633911 C8.45841471 35.71607128 8.45598053 39.71560386 8.44604492 43.71533203 C8.43456398 48.83562762 8.45475054 53.95523268 8.48396206 59.07543755 C8.50232961 63.01661543 8.50203032 66.95762809 8.49632454 70.89883804 C8.49617134 72.78624565 8.50221437 74.67366447 8.51461601 76.56103134 C8.52953196 79.20372233 8.51884438 81.84514116 8.50170898 84.48779297 C8.51137695 85.26410065 8.52104492 86.04040833 8.53100586 86.84024048 C8.46052826 92.04381842 7.28005799 94.98730596 4 99 C0.05472333 102.19887298 -2.99742859 102.44665816 -8 102 C-12.0070945 100.88174107 -14.31383915 99.16583243 -17 96 C-18.24714877 92.25855369 -18.17168523 88.75890693 -18.19287109 84.86010742 C-18.20513733 83.61569633 -18.20513733 83.61569633 -18.21765137 82.34614563 C-18.24247462 79.59926065 -18.25901282 76.85242721 -18.2734375 74.10546875 C-18.27876118 73.16690851 -18.28408485 72.22834827 -18.28956985 71.26134682 C-18.3162871 66.29427533 -18.33566724 61.32722886 -18.35009766 56.36010742 C-18.36344289 52.2501808 -18.39130823 48.14074997 -18.43212891 44.03100586 C-18.48143104 39.06729883 -18.50621558 34.10404191 -18.51332474 29.14010048 C-18.5200387 27.24986165 -18.53526456 25.35963292 -18.55921555 23.46953392 C-18.59085444 20.8218492 -18.59090621 18.17590049 -18.58349609 15.52807617 C-18.6081041 14.36125809 -18.6081041 14.36125809 -18.63320923 13.17086792 C-18.58714354 9.1419888 -18.16020997 6.71229276 -15.58853149 3.52949524 C-10.91091388 -1.04144064 -6.29114356 -0.50984666 0 0 Z " fill="#84A7D0" transform="translate(957,428)"/>
<path d="M0 0 C3.71720219 0.88219866 7.27802585 2.09472106 10.875 3.375 C11.81085938 3.69210937 12.74671875 4.00921875 13.7109375 4.3359375 C17.49053273 5.6392462 20.65501475 6.77000984 24 9 C24 10.32 24 11.64 24 13 C22.94941406 13.45890625 21.89882813 13.9178125 20.81640625 14.390625 C13.53484277 17.57284161 6.25634548 20.76056006 -1 24 C0.93416974 25.53121771 2.86257067 26.92234576 5.01171875 28.13671875 C10.79707898 31.42928462 10.79707898 31.42928462 12 34.8125 C12 35.534375 12 36.25625 12 37 C6.47239641 39.10575375 1.93002267 40.37851209 -4 40 C-3.21625 41.03125 -2.4325 42.0625 -1.625 43.125 C-1.08746094 43.84816406 -0.54992187 44.57132812 0.00390625 45.31640625 C1.07944238 46.76238144 2.15741581 48.20662747 3.24951172 49.64013672 C4.61701086 51.43806182 5.96544984 53.24921894 7.3125 55.0625 C7.75706543 55.6395166 8.20163086 56.2165332 8.65966797 56.81103516 C11.61439864 60.83461942 12.64563925 63.90681501 13 69 C13.12375 70.299375 13.2475 71.59875 13.375 72.9375 C13.32835646 77.71379895 11.12305099 81.47227198 8 85 C4.40735548 86.19754817 1.77282526 86.33094958 -2 86 C-4.5 84.4375 -4.5 84.4375 -6 82 C-5.78181374 80.37313543 -5.55466603 78.74691243 -5.27978516 77.12866211 C-4.73210749 72.96181956 -4.89823646 68.75765828 -4.9375 64.5625 C-4.94201172 63.64017578 -4.94652344 62.71785156 -4.95117188 61.76757812 C-4.96286062 59.51164952 -4.97924545 57.25586033 -5 55 C-5.99 55 -6.98 55 -8 55 C-7.97905273 55.66531738 -7.95810547 56.33063477 -7.93652344 57.01611328 C-7.85299391 60.05225302 -7.80122397 63.08815043 -7.75 66.125 C-7.71648437 67.17171875 -7.68296875 68.2184375 -7.6484375 69.296875 C-7.55137886 76.96450725 -8.58521282 80.20579202 -13.6875 85.875 C-17.39919411 87.68068903 -20.9674793 87.77770042 -25 87 C-28.9959954 83.93923757 -31.49014813 80.66205844 -32.44140625 75.6953125 C-32.98077295 64.2468194 -26.97134295 55.2974609 -20.125 46.6875 C-16.84256166 42.487992 -14.99017358 39.48105658 -14.70703125 34.1328125 C-14.94958258 31.84406109 -14.94958258 31.84406109 -15.98828125 29.171875 C-18.15720014 22.37202118 -18.37031155 13.91045569 -15.25 7.375 C-14.53739202 6.22595045 -13.79082602 5.09668556 -13 4 C-12.443125 3.175 -11.88625 2.35 -11.3125 1.5 C-7.73968594 -0.81750101 -4.09739154 -0.41315653 0 0 Z " fill="#DFAA58" transform="translate(410,331)"/>
<path d="M0 0 C7.09904649 0.96100629 13.33365666 7.7700756 17.65625 13.11328125 C24.89605634 23.27847445 27.0351263 32.54107014 26 45 C24.53444196 51.34593849 22.16039418 57.31129048 19 63 C10.44795453 62.03043671 3.60171437 56.60250782 -1.6875 49.9609375 C-8.51354913 39.76249505 -10.13312345 30.05819939 -9 18 C-7.50456619 11.48362779 -4.81273346 4.81273346 0 0 Z " fill="#DFA956" transform="translate(121,424)"/>
<path d="M0 0 C12.50259677 -0.71556993 23.38075369 1.526335 33 10 C38.42359974 16.20760525 43.66550612 24.29728731 44.16015625 32.73046875 C44 35 44 35 43 36 C31.11230441 36.81753036 21.30250681 36.53103329 11.6875 28.75 C5.26650983 22.66559399 0.50666699 14.61971432 -0.1796875 5.65234375 C-0.18633672 3.76728909 -0.10266919 1.8822684 0 0 Z " fill="#E0A955" transform="translate(102,487)"/>
<path d="M0 0 C3.6416978 2.5979356 6.63423015 5.32370432 9.48046875 8.76953125 C10.07085937 9.45660156 10.66125 10.14367187 11.26953125 10.8515625 C14.46534648 14.78431229 14.46534648 14.78431229 15.48046875 16.76953125 C15.13671875 19.0078125 15.13671875 19.0078125 14.48046875 20.76953125 C3.52182225 23.9220186 -10.78412155 26.97603341 -21.4296875 21.234375 C-27.62531381 16.89164628 -34.20581793 11.71254964 -37.51953125 4.76953125 C-37.83203125 2.14453125 -37.83203125 2.14453125 -36.51953125 -0.23046875 C-27.00145389 -8.08544119 -9.77445841 -5.75681895 0 0 Z " fill="#E0A956" transform="translate(153.51953125,537.23046875)"/>
<path d="M0 0 C2.62673751 1.04865877 3.04784848 2.07557915 4.203125 4.6171875 C4.52667969 5.30425781 4.85023438 5.99132812 5.18359375 6.69921875 C8.29999714 14.58532874 8.04554067 23.03697367 5.078125 30.9296875 C1.76198682 38.1304447 -3.46719671 45.63417693 -10.984375 48.8046875 C-11.80042499 46.8895296 -12.61208132 44.97249916 -13.421875 43.0546875 C-13.87433594 41.98734375 -14.32679688 40.92 -14.79296875 39.8203125 C-17.64876642 32.59186724 -18.49074452 25.00028047 -15.8203125 17.5625 C-6.94742277 -0.68380145 -6.94742277 -0.68380145 0 0 Z " fill="#E1AB59" transform="translate(164.984375,467.1953125)"/>
<path d="M0 0 C12.51288568 4.15165188 19.45161554 13.91381625 25.16308594 25.22167969 C27.25607053 29.66896667 28.67689338 34.27859849 30 39 C30.4125 40.2375 30.825 41.475 31.25 42.75 C32.8333441 49.25004422 32.14501613 56.36148382 32 63 C33.98 62.505 33.98 62.505 36 62 C34.56231082 64.87537836 32.8082916 64.96501667 29.8125 66 C28.81992187 66.34546875 27.82734375 66.6909375 26.8046875 67.046875 C25.41636719 67.51867187 25.41636719 67.51867187 24 68 C22.824375 68.4125 21.64875 68.825 20.4375 69.25 C18 70 18 70 16 70 C16.53039989 67.70160049 17.16015835 65.58507238 18.01171875 63.37890625 C21.60509698 51.09324549 18.87770453 38.47619075 14 27 C13.56558594 25.92878906 13.13117188 24.85757813 12.68359375 23.75390625 C8.99271913 15.49938609 3.62493863 7.52125996 -4.8671875 3.71484375 C-7.24428435 2.99094032 -9.55050891 2.40651129 -12 2 C-7.88879431 -0.7408038 -4.82674466 -0.7076246 0 0 Z " fill="#F7ECDD" transform="translate(372,499)"/>
<path d="M0 0 C3.44893895 1.80020631 4.03876238 3.54756284 5.3125 7.20703125 C6.86561384 16.59157823 6.90267692 26.5211214 1.5625 34.64453125 C0.20026444 36.53904774 -1.21413624 38.39758999 -2.6875 40.20703125 C-3.43515625 41.14675781 -4.1828125 42.08648438 -4.953125 43.0546875 C-5.52546875 43.76496094 -6.0978125 44.47523438 -6.6875 45.20703125 C-10.51706366 43.69241731 -12.37957274 41.42814561 -14.875 38.20703125 C-15.56980469 37.32015625 -16.26460937 36.43328125 -16.98046875 35.51953125 C-20.22536381 31.12370088 -20.35927755 27.55667443 -19.6875 22.20703125 C-17.72064523 15.43353701 -13.48273055 10.50273835 -8.6875 5.51953125 C-8.17735352 4.97772217 -7.66720703 4.43591309 -7.14160156 3.87768555 C-4.80052607 1.5701509 -3.33434261 0.25686069 0 0 Z " fill="#E1AB5A" transform="translate(182.6875,500.79296875)"/>
<path d="M0 0 C3.32619234 2.09694734 5.55308671 3.60279634 7.875 6.8125 C8.6870372 11.46256209 8.49174284 15.43217078 6.5625 19.75 C6.005625 20.430625 5.44875 21.11125 4.875 21.8125 C4.42125 22.369375 3.9675 22.92625 3.5 23.5 C0.00660219 26.32159054 -3.0774006 27.02309997 -7.5 26.8125 C-12.61669996 26.11943529 -15.74748042 23.60215738 -19.125 19.8125 C-21.00557482 16.05135037 -20.77840782 11.89782555 -20.125 7.8125 C-15.71394008 -0.07568207 -8.70258259 -3.30698139 0 0 Z " fill="#85A8D0" transform="translate(958.125,385.1875)"/>
<path d="M0 0 C4.87378502 2.39195691 8.05226356 5.59275498 11.0625 10.0625 C12.08442153 13.2645208 12.37936062 15.66162653 12 19 C10 21 10 21 7.5 21.25 C5 21 5 21 3 19 C2.54625 17.845 2.0925 16.69 1.625 15.5 C0.34153576 12.04993949 0.34153576 12.04993949 -1.8125 10.5625 C-4.79766794 9.79488539 -6.92385065 9.56055009 -10 10 C-14.08047746 13.15309622 -15.73124612 16.04032572 -17 21 C-21.75 22.125 -21.75 22.125 -24 21 C-24.35480978 16.01295144 -24.58540154 12.17080309 -22.3125 7.625 C-15.66963751 0.08445339 -9.8961309 -1.38296446 0 0 Z " fill="#1F3950" transform="translate(360,330)"/>
<path d="M0 0 C2.8418049 -0.0568361 4.42337115 -0.06459516 7 1 C10.23538344 4.53014722 13 8.12306972 13 13 C11.02 13.33 9.04 13.66 7 14 C7 14.66 7 15.32 7 16 C5 16 5 16 3.45703125 14.53125 C-0.91812123 9.12726119 -0.91812123 9.12726119 -1.16796875 5.6875 C-0.875 3.5 -0.875 3.5 0 0 Z " fill="#8CADD3" transform="translate(388,310)"/>
<path d="M0 0 C0.99 0 1.98 0 3 0 C4.23839599 6.65637843 4.09139136 13.2471936 4 20 C3.67 20 3.34 20 3 20 C3 17.69 3 15.38 3 13 C2.01 13 1.02 13 0 13 C0 8.71 0 4.42 0 0 Z " fill="#F7E6C3" transform="translate(402,386)"/>
<path d="M0 0 C0.9796875 0.00322266 1.959375 0.00644531 2.96875 0.00976562 C3.98453125 0.01814453 5.0003125 0.02652344 6.046875 0.03515625 C7.59375 0.04192383 7.59375 0.04192383 9.171875 0.04882812 C11.71360073 0.06059537 14.25520819 0.07703614 16.796875 0.09765625 C16.796875 0.42765625 16.796875 0.75765625 16.796875 1.09765625 C16.24225586 1.11747559 15.68763672 1.13729492 15.11621094 1.15771484 C12.59263807 1.25323276 10.06986276 1.36280192 7.546875 1.47265625 C6.67417969 1.50359375 5.80148437 1.53453125 4.90234375 1.56640625 C4.05800781 1.60507812 3.21367188 1.64375 2.34375 1.68359375 C1.56870117 1.71501465 0.79365234 1.74643555 -0.00488281 1.77880859 C-2.25697778 1.98673672 -2.25697778 1.98673672 -4.28417969 3.14697266 C-7.10189161 4.54292307 -9.22148213 3.77530236 -12.203125 3.09765625 C-8.01889516 0.30816969 -4.96878281 -0.02888827 0 0 Z " fill="#E7C58E" transform="translate(1410.203125,426.90234375)"/>
<path d="M0 0 C0.99 0 1.98 0 3 0 C3.05447047 1.41623216 3.09300508 2.83308191 3.125 4.25 C3.14820313 5.03890625 3.17140625 5.8278125 3.1953125 6.640625 C2.9828378 9.20731941 2.28654105 10.7916067 1 13 C-0.00496852 9.98509443 -0.10335303 7.95818308 -0.0625 4.8125 C-0.05347656 3.91144531 -0.04445313 3.01039063 -0.03515625 2.08203125 C-0.02355469 1.39496094 -0.01195312 0.70789063 0 0 Z " fill="#F9F3E3" transform="translate(402,399)"/>
<path d="M0 0 C3.3 0 6.6 0 10 0 C10.33 0.66 10.66 1.32 11 2 C8.24921116 2.91692961 6.64051087 3.10886083 3.8125 3.0625 C1.9253125 3.0315625 1.9253125 3.0315625 0 3 C0 2.01 0 1.02 0 0 Z " fill="#E1B166" transform="translate(1328,527)"/>
<path d="M0 0 C0.66 0 1.32 0 2 0 C2.16682272 4.92127034 2.24828052 8.50343896 0 13 C-0.99 12.67 -1.98 12.34 -3 12 C-2.690625 11.505 -2.38125 11.01 -2.0625 10.5 C-0.58355618 7.02013219 -0.37597149 3.75971491 0 0 Z " fill="#E3B267" transform="translate(389,295)"/>
<path d="M0 0 C0.66 0.66 1.32 1.32 2 2 C-0.64 4.64 -3.28 7.28 -6 10 C-6.99 9.67 -7.98 9.34 -9 9 C-6.03 6.03 -3.06 3.06 0 0 Z " fill="#E2B166" transform="translate(1622,459)"/>
<path d="M0 0 C0 0.99 0 1.98 0 3 C-2.75 4.625 -2.75 4.625 -6 6 C-8.203125 5.0859375 -8.203125 5.0859375 -10 4 C-8.71086513 3.32845067 -7.41859796 2.66291141 -6.125 2 C-5.40570313 1.62875 -4.68640625 1.2575 -3.9453125 0.875 C-2 0 -2 0 0 0 Z " fill="#E3B369" transform="translate(418,568)"/>
<path d="M0 0 C0.66 0.33 1.32 0.66 2 1 C-0.38957269 4.24299151 -2.2047869 6.50902342 -6 8 C-6.66 7.34 -7.32 6.68 -8 6 C-5.36 4.02 -2.72 2.04 0 0 Z " fill="#DFAF61" transform="translate(432,557)"/>
<path d="M0 0 C0.66 0.33 1.32 0.66 2 1 C-0.64 4.3 -3.28 7.6 -6 11 C-6.33 10.34 -6.66 9.68 -7 9 C-6.02180976 7.68677212 -5.0424189 6.37443848 -4.0625 5.0625 C-3.51722656 4.33160156 -2.97195313 3.60070312 -2.41015625 2.84765625 C-1 1 -1 1 0 0 Z " fill="#E2B266" transform="translate(401,331)"/>
<path d="M0 0 C0 0.66 0 1.32 0 2 C-5.41538462 4.21538462 -5.41538462 4.21538462 -8.375 3.125 C-8.91125 2.75375 -9.4475 2.3825 -10 2 C-8.71211992 1.46987262 -7.41953322 0.9511671 -6.125 0.4375 C-5.40570313 0.14746094 -4.68640625 -0.14257812 -3.9453125 -0.44140625 C-2 -1 -2 -1 0 0 Z " fill="#E7BE7D" transform="translate(397,579)"/>
<path d="M0 0 C1.5625 1.25 1.5625 1.25 3 3 C2.6875 5.1875 2.6875 5.1875 2 7 C0.35 6.67 -1.3 6.34 -3 6 C-2.505 5.38125 -2.01 4.7625 -1.5 4.125 C0.19222773 2.16119096 0.19222773 2.16119096 0 0 Z " fill="#E5B971" transform="translate(166,551)"/>
<path d="M0 0 C0.66 0.66 1.32 1.32 2 2 C-1.465 4.97 -1.465 4.97 -5 8 C-5 5 -5 5 -2.5 2.3125 C-1.675 1.549375 -0.85 0.78625 0 0 Z " fill="#E0AF62" transform="translate(1634,447)"/>
<path d="M0 0 C0.99 0 1.98 0 3 0 C2.84660156 0.56203125 2.69320313 1.1240625 2.53515625 1.703125 C1.98639581 4.05838878 1.68502401 6.34548104 1.4375 8.75 C1.35371094 9.54921875 1.26992188 10.3484375 1.18359375 11.171875 C1.12300781 11.77515625 1.06242187 12.3784375 1 13 C0.67 13 0.34 13 0 13 C0 8.71 0 4.42 0 0 Z " fill="#F2DCB4" transform="translate(402,386)"/>
<path d="M0 0 C0.86625 0.3403125 0.86625 0.3403125 1.75 0.6875 C-0.23 2.0075 -2.21 3.3275 -4.25 4.6875 C-4.91 4.0275 -5.57 3.3675 -6.25 2.6875 C-2.80384615 -0.38942308 -2.80384615 -0.38942308 0 0 Z " fill="#8FB0D6" transform="translate(948.25,428.3125)"/>
<path d="M0 0 C-0.99 1.485 -0.99 1.485 -2 3 C-4.64 2.67 -7.28 2.34 -10 2 C-6.3558226 -0.4294516 -4.28758728 -0.16179575 0 0 Z " fill="#E4BB7A" transform="translate(1408,428)"/>
<path d="M0 0 C-1.32 0.33 -2.64 0.66 -4 1 C-4.33 2.98 -4.66 4.96 -5 7 C-6.125 3.25 -6.125 3.25 -5 1 C-5.99 0.67 -6.98 0.34 -8 0 C-4.71023192 -1.09658936 -3.28696233 -0.79953138 0 0 Z " fill="#D6DCE1" transform="translate(392,309)"/>
</svg>
